<svg preserveAspectRatio="none" overflow="visible" style="display: block;" width="21.5008" height="22.7369" viewBox="0 0 21.5008 22.7369" fill="none" xmlns="http://www.w3.org/2000/svg">
<path id="leaf-badge" d="M18.7303 1.79395C19.6985 3.90292 20.5008 6.32633 20.5008 10.1055C20.5007 16.4825 14.9285 21.7373 8.86895 21.7373H8.86602C6.89884 21.7433 5.00124 21.0092 3.54962 19.6816C3.0147 19.1924 2.55656 18.6344 2.18047 18.0283C2.64831 17.8076 3.16102 17.6244 3.71954 17.4883L4.11212 17.4023C5.76344 17.0748 7.41219 16.3997 8.80255 15.6533C10.1848 14.9113 11.3794 14.0617 12.1023 13.3389C12.4929 12.9483 12.4929 12.3153 12.1023 11.9248C11.7118 11.5344 11.0788 11.5343 10.6883 11.9248C10.148 12.4649 9.13242 13.2065 7.85626 13.8916C6.58772 14.5726 5.12889 15.1616 3.72344 15.4404C2.86914 15.6097 2.07601 15.8691 1.3504 16.209C1.18668 15.679 1.0775 15.1299 1.02911 14.5693C0.859906 12.6094 1.43392 10.6574 2.63653 9.10059C3.83906 7.54405 5.58243 6.49637 7.5213 6.16504L7.54278 6.16113C11.1227 5.47028 13.5066 4.94122 15.3133 4.16113C16.7067 3.55943 17.7422 2.81539 18.7303 1.79395Z" stroke="#ECE9E3" stroke-width="2" stroke-linecap="round"/>
</svg>
