<svg preserveAspectRatio="none" overflow="visible" style="display: block;" width="15" height="15" viewBox="0 0 15 15" fill="none" xmlns="http://www.w3.org/2000/svg">
<path id="&#226;&#156;&#166;" d="M7.10937 15C6.96615 14.1536 6.58854 13.2422 5.97656 12.2656C5.36458 11.276 4.49219 10.3581 3.35938 9.51172C2.23958 8.66536 1.11979 8.125 0 7.89062V7.07031C1.10677 6.8099 2.16797 6.32812 3.18359 5.625C4.21224 4.90885 5.07161 4.04948 5.76172 3.04687C6.46484 2.01823 6.91406 1.0026 7.10937 0H7.92969C8.04688 0.651041 8.28125 1.32161 8.63281 2.01172C8.98438 2.6888 9.43359 3.33984 9.98047 3.96484C10.5404 4.57682 11.1654 5.13021 11.8555 5.625C12.8841 6.35417 13.9323 6.83594 15 7.07031V7.89062C14.2839 8.03385 13.5417 8.32682 12.7734 8.76953C12.0182 9.21224 11.3151 9.73958 10.6641 10.3516C10.013 10.9505 9.47917 11.582 9.0625 12.2461C8.45052 13.2227 8.07292 14.1406 7.92969 15H7.10937Z" fill="#D2C2A7"/>
</svg>
